<svg width="24" height="24" viewBox="0 0 24 24" fill="none" xmlns="http://www.w3.org/2000/svg">
<path fill-rule="evenodd" clip-rule="evenodd" d="M3.22301 3.02941C3.655 2.59742 4.24089 2.35474 4.85181 2.35474H18.6726C19.2835 2.35474 19.8694 2.59742 20.3014 3.02941C20.7334 3.46139 20.9761 4.04729 20.9761 4.65821V18.479C20.9761 19.0899 20.7334 19.6758 20.3014 20.1078C19.8694 20.5398 19.2835 20.7825 18.6726 20.7825H4.85181C4.24089 20.7825 3.655 20.5398 3.22301 20.1078C2.79103 19.6758 2.54834 19.0899 2.54834 18.479V4.65821C2.54834 4.04729 2.79103 3.46139 3.22301 3.02941ZM18.6726 0.0512695H4.85181C3.62997 0.0512695 2.45818 0.536642 1.59421 1.40061C0.730245 2.26458 0.244873 3.43637 0.244873 4.65821V18.479C0.244873 19.7008 0.730245 20.8726 1.59421 21.7366C2.45818 22.6006 3.62997 23.0859 4.85181 23.0859H18.6726C19.8945 23.0859 21.0662 22.6006 21.9302 21.7366C22.7942 20.8726 23.2796 19.7008 23.2796 18.479V4.65821C23.2796 3.43637 22.7942 2.26458 21.9302 1.40061C21.0662 0.536642 19.8945 0.0512695 18.6726 0.0512695ZM17.5209 17.1279V12.8699C17.5209 10.5895 16.3023 9.52758 14.6784 9.52758C13.3666 9.52758 12.7815 10.2486 12.4532 10.7553V10.7784H12.4371L12.4532 10.7542V9.70265H9.98392C10.0173 10.3994 9.98392 17.1279 9.98392 17.1279H12.4532V12.9805C12.4532 12.7593 12.4705 12.5382 12.535 12.3793C12.7135 11.9347 13.1201 11.4763 13.8019 11.4763C14.6957 11.4763 15.0527 12.157 15.0527 13.1544V17.1279H17.5209ZM6.00353 7.40494C6.00353 6.67704 6.55636 6.12191 7.40058 6.12191C8.24595 6.12191 8.76538 6.67704 8.78151 7.40494C8.78151 8.11786 8.24595 8.68912 7.38446 8.68912H7.36833C6.54024 8.68912 6.00353 8.11901 6.00353 7.40494ZM8.61911 17.1279H6.1498V9.70265H8.61911V17.1279Z" fill="#DA5C5C"/>
</svg>
