<svg width="530" height="392" viewBox="0 0 530 392" fill="none" xmlns="http://www.w3.org/2000/svg">
<path d="M513.624 390.974L529.938 153.927C530.393 147.501 528.343 141.167 524.241 136.2L418.932 9.0641C413.692 2.77564 405.718 -0.596433 397.561 0.0870952L90.2462 25.5144C80.4034 26.3346 71.9277 32.8509 68.6467 42.1924L1.43308 233.307C0.0660214 237.226 -0.344096 241.418 0.293864 245.519L23.0326 390.655L513.624 390.974Z" fill="#F4F4F4"/>
<path d="M115.035 236.953H68.9653V265.57H115.035V236.953Z" fill="#B2B6BB"/>
<path d="M115.036 236.953H105.238V265.57H115.036V236.953Z" fill="#61656D"/>
<path d="M47.8215 239.322L40.3938 202.685L40.6216 202.64L48.0493 239.277L47.8215 239.322Z" fill="#3F4249"/>
<path d="M49.8982 190.342L48.9226 237.951L49.1505 237.956L50.1261 190.346L49.8982 190.342Z" fill="#3F4249"/>
<path d="M60.7983 199.094L49.448 213.357L49.6266 213.499L60.9769 199.236L60.7983 199.094Z" fill="#3F4249"/>
<path d="M53.6091 248.436L52.4699 246.75C51.3306 245.064 50.7382 243.059 50.7382 241.008V236.953H46.3637V241.008C46.3637 243.059 45.7713 245.064 44.632 246.75L43.4928 248.436C41.1233 251.99 40.3942 256.41 41.4422 260.557L42.7182 265.57H54.3837L55.6597 260.557C56.7077 256.41 55.9331 251.99 53.6091 248.436Z" fill="#868A91"/>
<path d="M53.6092 248.436L52.47 246.75C51.3308 245.064 50.7384 243.059 50.7384 241.008V236.953H49.4624V240.644C49.4624 242.922 50.146 245.155 51.3763 247.069C53.2902 250.578 53.2902 254.588 52.6067 257.869C52.1966 259.828 51.4219 261.696 50.3738 263.382L49.508 264.795C49.189 265.296 48.6422 265.615 48.0498 265.615H54.4294L55.7054 260.603C56.7079 256.41 55.9332 251.99 53.6092 248.436Z" fill="#61656D"/>
<path d="M58.4751 213.754L44.9731 224.958L45.119 225.133L58.6204 213.93L58.4751 213.754Z" fill="#3F4249"/>
<path d="M46.728 233.854L34.7891 222.553L34.9258 222.416L46.8647 233.671L46.728 233.854Z" fill="#3F4249"/>
<path d="M54.1104 207.652L55.9787 199.45C56.6622 196.533 60.1254 195.303 62.495 197.171C64.819 199.04 64.4089 202.731 61.7203 204.007L54.1104 207.652Z" fill="#DA5C5C"/>
<path opacity="0.3" d="M54.1104 207.652L55.9787 199.45C56.6622 196.533 60.1254 195.303 62.495 197.171C64.819 199.04 64.4089 202.731 61.7203 204.007L54.1104 207.652Z" fill="white"/>
<path d="M63.9984 200.406C63.9984 201.865 63.1781 203.323 61.6744 204.006L54.0645 207.652L62.449 197.171C63.5427 197.991 64.0439 199.222 63.9984 200.406Z" fill="#DA5C5C"/>
<path d="M49.7814 204.006L44.4044 192.888C42.4905 188.923 45.3613 184.321 49.7814 184.321C54.156 184.321 57.0724 188.923 55.1585 192.888L49.7814 204.006Z" fill="#DA5C5C"/>
<path opacity="0.3" d="M49.7814 204.006L44.4044 192.888C42.4905 188.923 45.3613 184.321 49.7814 184.321C54.156 184.321 57.0724 188.923 55.1585 192.888L49.7814 204.006Z" fill="white"/>
<path opacity="0.3" d="M50.0549 184.367L49.7815 204.007L55.1586 192.888C57.0269 189.015 54.2928 184.503 50.0549 184.367Z" fill="white"/>
<path d="M43.8118 218.816L36.0196 209.521C33.2399 206.194 34.8804 201.09 39.0727 200.042C43.265 198.994 47.1383 202.685 46.2725 206.923L43.8118 218.816Z" fill="#DA5C5C"/>
<path opacity="0.3" d="M46.2726 206.923C47.1384 202.685 43.2651 198.994 39.0728 200.042L43.8575 218.771L46.2726 206.923Z" fill="white"/>
<path d="M42.7186 229.89L39.1642 221.004C37.8883 217.814 33.7415 217.085 31.4631 219.591C29.1391 222.098 30.2783 226.153 33.5593 227.156L42.7186 229.89Z" fill="#DA5C5C"/>
<path opacity="0.3" d="M42.7186 229.89L39.1642 221.004C37.8883 217.814 33.7415 217.085 31.4631 219.591C29.1391 222.098 30.2783 226.153 33.5593 227.156L42.7186 229.89Z" fill="white"/>
<path opacity="0.3" d="M31.5994 219.409L42.7181 229.889L39.1638 221.004C37.9334 217.905 33.9234 217.13 31.5994 219.409Z" fill="white"/>
<path d="M48.6423 222.097L52.5157 212.71C53.8827 209.383 58.3029 208.609 60.718 211.297C63.1331 213.986 61.9028 218.269 58.394 219.272L48.6423 222.097Z" fill="#DA5C5C"/>
<path opacity="0.3" d="M48.6423 222.097L52.5157 212.71C53.8827 209.383 58.3029 208.609 60.718 211.297C63.1331 213.986 61.9028 218.269 58.394 219.272L48.6423 222.097Z" fill="white"/>
<path d="M49.0977 233.626L48.9609 233.444L67.4618 223.328L67.5529 223.51L49.0977 233.626Z" fill="#3F4249"/>
<path d="M52.0598 231.849L58.7584 222.69C61.128 219.409 66.1405 219.773 68.0088 223.328C69.9227 226.882 67.4164 231.211 63.4064 231.393L52.0598 231.849Z" fill="#DA5C5C"/>
<path opacity="0.3" d="M52.0598 231.849L58.7584 222.69C61.128 219.409 66.1405 219.773 68.0088 223.328C69.9227 226.882 67.4164 231.211 63.4064 231.393L52.0598 231.849Z" fill="white"/>
<path d="M68.1911 228.158C67.3708 229.935 65.6392 231.302 63.4064 231.393L52.0598 231.849L68.0088 223.328C68.8746 224.968 68.829 226.7 68.1911 228.158Z" fill="#DA5C5C"/>
<path opacity="0.3" d="M52.5157 212.711L48.6423 222.098L60.718 211.298C58.3029 208.655 53.9283 209.384 52.5157 212.711Z" fill="white"/>
<path d="M127.248 268.623H157.825C158.69 268.623 159.374 267.94 159.374 267.074C159.374 266.208 158.69 265.524 157.825 265.524H127.248V268.623Z" fill="#B2B6BB"/>
<path d="M153.86 267.119H123.01V362.129H153.86V267.119Z" fill="#B2B6BB"/>
<path d="M123.967 267.119H29.5942V362.129H123.967V267.119Z" fill="#DADDDF"/>
<path d="M119.182 354.884H34.0144V280.334L119.182 280.425V354.884ZM34.6979 354.201H118.499V281.109H34.6979V354.201Z" fill="#B2B6BB"/>
<path d="M26.0855 268.623H127.293C128.159 268.623 128.843 267.94 128.843 267.074C128.843 266.208 128.159 265.524 127.293 265.524H26.0855C25.2197 265.524 24.5361 266.208 24.5361 267.074C24.5817 267.94 25.2652 268.623 26.0855 268.623Z" fill="#DADDDF"/>
<path d="M119.182 317.153H34.0144V317.836H119.182V317.153Z" fill="#B2B6BB"/>
<path d="M72.9301 292.318C74.2388 292.318 75.2997 291.257 75.2997 289.949C75.2997 288.64 74.2388 287.579 72.9301 287.579C71.6214 287.579 70.5605 288.64 70.5605 289.949C70.5605 291.257 71.6214 292.318 72.9301 292.318Z" fill="#B2B6BB"/>
<path opacity="0.15" d="M73.7961 289.949C73.7961 288.901 73.1125 288.034 72.2012 287.715C72.429 287.624 72.7024 287.579 72.9758 287.579C74.2973 287.579 75.3454 288.627 75.3454 289.949C75.3454 291.27 74.2973 292.318 72.9758 292.318C72.7024 292.318 72.4746 292.272 72.2012 292.181C73.1125 291.862 73.7961 290.997 73.7961 289.949Z" fill="black"/>
<path d="M72.9301 329.001C74.2388 329.001 75.2997 327.94 75.2997 326.632C75.2997 325.323 74.2388 324.262 72.9301 324.262C71.6214 324.262 70.5605 325.323 70.5605 326.632C70.5605 327.94 71.6214 329.001 72.9301 329.001Z" fill="#B2B6BB"/>
<path opacity="0.15" d="M73.7961 326.632C73.7961 325.584 73.1125 324.717 72.2012 324.398C72.429 324.307 72.7024 324.262 72.9758 324.262C74.2973 324.262 75.3454 325.31 75.3454 326.632C75.3454 327.953 74.2973 329.001 72.9758 329.001C72.7024 329.001 72.4746 328.955 72.2012 328.864C73.1125 328.545 73.7961 327.68 73.7961 326.632Z" fill="black"/>
<path d="M128.843 271.812L123.967 268.623H29.5942V270.081L128.843 271.812Z" fill="#B2B6BB"/>
<path d="M147.799 362.129L150.169 388.423C150.351 389.38 149.622 390.291 148.665 390.291C148.027 390.291 147.435 389.881 147.207 389.243L140.326 362.129H147.799Z" fill="#DADDDF"/>
<path d="M146.933 377.44L144.063 376.757L140.372 362.175H147.845L150.214 388.468C150.351 389.197 149.941 389.926 149.303 390.2L146.933 377.44Z" fill="#B2B6BB"/>
<path d="M120.96 362.129L123.329 388.423C123.511 389.38 122.782 390.291 121.825 390.291C121.187 390.291 120.595 389.881 120.367 389.243L113.486 362.129H120.96Z" fill="#DADDDF"/>
<path d="M118.453 365.046L114.17 364.226L113.441 362.129H120.914L123.284 388.422C123.42 389.152 123.01 389.881 122.372 390.154L118.453 365.046Z" fill="#B2B6BB"/>
<path d="M61.8112 362.129L59.4416 388.423C59.2594 389.38 59.9885 390.291 60.9454 390.291C61.5834 390.291 62.1758 389.881 62.4036 389.243L69.2845 362.129H61.8112Z" fill="#DADDDF"/>
<path d="M63.1329 376.119L60.5811 375.481L61.8114 362.129H69.2846L62.4038 389.243C62.176 389.881 61.5836 390.291 60.9456 390.291C60.9 390.291 60.9 390.291 60.8545 390.291L63.1329 376.119Z" fill="#B2B6BB"/>
<path d="M34.2424 362.129L31.8728 388.423C31.6905 389.38 32.4196 390.291 33.3766 390.291C34.0145 390.291 34.6069 389.881 34.8348 389.243L41.7156 362.129H34.2424Z" fill="#DADDDF"/>
<path d="M37.1585 364.408L33.8775 363.815L34.2421 362.129H41.7153L34.8345 389.243C34.6066 389.881 34.0143 390.291 33.3763 390.291C33.3307 390.291 33.3307 390.291 33.2852 390.291L37.1585 364.408Z" fill="#B2B6BB"/>
<path d="M74.6157 325.675L58.3933 344.039L69.9677 352.97L83.5472 340.576L74.6157 325.675Z" fill="#FC9D9D"/>
<path d="M60.5808 341.031L50.2368 348.96C49.0975 349.826 48.7786 351.421 49.4621 352.651L69.33 389.334C69.7401 390.154 70.697 390.473 71.5628 390.154C73.3856 389.471 74.3881 387.511 73.8413 385.643L73.6134 384.777C72.4742 380.767 71.8818 376.666 71.8363 372.474L71.5628 353.107C71.5628 351.922 70.697 350.874 69.5578 350.601C65.7756 349.735 62.9504 346.545 62.4947 342.672L62.4036 341.715C62.2213 340.94 61.2188 340.53 60.5808 341.031Z" fill="#242830"/>
<path d="M65.5938 335.699L117.907 275.002L117.36 190.153H146.022L141.784 281.017C141.739 284.89 140.144 288.581 137.319 291.27L76.6669 346.909L65.5938 335.699Z" fill="#3F4249"/>
<path d="M151.536 116.743L149.941 142.626L147.845 142.307L145.977 190.29L85.0971 190.108L84.049 136.337L78.9453 104.166L98.6309 98.5608L99.3144 98.3785L101.821 97.6494L112.484 106.809L123.83 97.5127L126.838 98.4696C127.066 98.5152 127.157 98.5608 127.202 98.5608H127.248C127.248 98.5608 127.248 98.5608 127.385 98.6064L127.521 98.6519L142.103 103.3C147.982 105.168 151.809 110.682 151.536 116.743Z" fill="#DA5C5C"/>
<path d="M69.1935 116.241L65.6392 166.367L88.6968 157.162L93.7094 100.657L79.492 104.074C73.7959 105.441 69.6036 110.363 69.1935 116.241Z" fill="#DA5C5C"/>
<path d="M110.843 109.041L107.016 169.693L112.21 175.253L117.086 169.693L114.307 108.768L112.484 107.538L110.843 109.041Z" fill="#242830"/>
<path d="M195.555 112.14L162.472 164.179C160.012 168.053 154.224 167.506 152.493 163.268L143.744 141.441L150.624 111.32L160.65 139.572L179.788 112.14H195.555Z" fill="#DA5C5C"/>
<path d="M84.4585 362.95L99.3594 363.269L98.6303 374.798L84.8686 376.028L84.4585 362.95Z" fill="#FC9D9D"/>
<path d="M91.7498 369.01C95.7142 369.01 98.9952 372.154 99.1319 376.119L99.1775 377.942C99.223 378.671 99.3142 379.4 99.4964 380.083L101.547 387.648C101.912 388.969 100.909 390.245 99.5876 390.245H82.6361C81.1779 390.245 80.1754 388.787 80.7222 387.42L83.6386 380.129C84.0487 379.126 84.2765 378.033 84.3221 376.939L84.3677 376.073C84.5044 372.2 87.7397 369.01 91.7498 369.01Z" fill="#242830"/>
<path opacity="0.2" d="M147.526 150.736L140.919 135.152C140.554 134.651 139.734 134.833 139.688 135.471L136.225 190.108L145.977 190.29L147.526 150.736Z" fill="black"/>
<path opacity="0.2" d="M136.225 190.153L130.802 281.336L83.8663 331.826L83.7296 318.201L81.2689 321.117L80.312 335.654L73.1577 343.355L76.6665 346.909L137.546 291.042C140.235 288.49 141.784 284.982 141.784 281.29L146.022 190.153H136.225Z" fill="black"/>
<g opacity="0.2">
<path opacity="0.2" d="M109.273 283.621L107.391 317.974L108.073 318.011L109.956 283.658L109.273 283.621Z" fill="black"/>
</g>
<path d="M126.61 145.451L129.39 141.349L130.073 136.975C130.119 136.793 130.256 136.656 130.438 136.61C131.668 136.337 132.853 137.157 133.035 138.387L133.901 143.673L143.607 142.99C144.336 142.99 144.974 143.537 145.065 144.266C145.157 145.086 144.473 145.815 143.653 145.815H142.878H143.698C144.519 145.815 145.248 146.453 145.293 147.273C145.384 148.139 144.746 148.959 143.835 149.005L143.106 149.051L143.926 148.959C144.746 148.868 145.476 149.506 145.567 150.326C145.658 151.147 145.02 151.876 144.2 151.967L143.243 152.058L144.61 151.921C145.202 151.876 145.749 152.331 145.84 152.924C145.886 153.516 145.476 154.018 144.929 154.109L127.977 156.843L121.324 158.802L123.101 145.724L126.61 145.451Z" fill="#FC9D9D"/>
<path opacity="0.2" d="M93.7091 148.459C90.7927 146.909 88.8333 143.993 88.5143 140.712L87.1472 126.677C87.1017 126.358 86.6915 126.358 86.646 126.677L84.3675 149.552L79.2183 150.145C79.036 150.145 78.8993 150.327 78.9449 150.509C78.9449 150.691 79.1271 150.828 79.3094 150.782L126.655 145.405L127.202 144.585L93.7091 148.459Z" fill="black"/>
<path opacity="0.15" d="M145.84 152.969L145.795 152.878C145.658 152.24 145.02 151.83 144.428 151.967L144.245 152.013L130.165 154.154L126.382 145.451H125.334L121.416 145.906L122.6 158.529C122.6 158.529 129.208 156.752 129.436 156.706L130.666 156.524C135.041 155.795 143.835 154.382 144.747 154.245C146.023 153.972 145.84 152.969 145.84 152.969Z" fill="black"/>
<g opacity="0.15">
<path opacity="0.15" d="M139.46 145.816C139.46 145.634 139.597 145.497 139.779 145.497L144.883 145.087C144.655 145.543 144.199 145.862 143.698 145.862H143.652L139.825 146.181C139.642 146.135 139.46 145.998 139.46 145.816Z" fill="black"/>
</g>
<g opacity="0.15">
<path opacity="0.15" d="M139.688 149.233C139.688 149.051 139.779 148.914 139.961 148.869L145.111 148.185C144.928 148.641 144.473 148.96 143.971 149.005H143.926L140.007 149.552C139.87 149.552 139.734 149.415 139.688 149.233Z" fill="black"/>
</g>
<path opacity="0.2" d="M118.271 111.502L118.18 111.411L118.271 111.502L112.712 109.998L107.38 111.548L98.6309 98.6061L99.3144 98.4238L107.927 111.137L112.529 107.538L117.724 111.137L126.929 98.515C127.157 98.5605 127.248 98.6061 127.293 98.6061H127.339C127.339 98.6061 127.339 98.6061 127.476 98.6517L127.612 98.6972L118.271 111.502Z" fill="black"/>
<path d="M67.234 152.56L123.101 145.77L125.015 157.709L72.0643 173.157C68.5555 174.205 65.0923 171.288 65.5024 167.643L67.234 152.56Z" fill="#DA5C5C"/>
<path opacity="0.2" d="M124.696 155.658L74.6615 167.642C70.1958 168.599 66.0035 165 66.3681 160.397L66.4592 159.395L65.5478 167.642C65.1377 171.288 68.6009 174.205 72.1097 173.157L93.3447 166.914L125.06 157.663L124.696 155.658Z" fill="black"/>
<path d="M123.967 145.724L126.291 157.435L128.57 156.888L126.382 145.451L123.967 145.724Z" fill="#242830"/>
<path d="M126.382 154.063C127.817 154.063 128.979 152.901 128.979 151.466C128.979 150.032 127.817 148.869 126.382 148.869C124.948 148.869 123.785 150.032 123.785 151.466C123.785 152.901 124.948 154.063 126.382 154.063Z" fill="#242830"/>
<path opacity="0.2" d="M128.022 154.063L126.929 148.458C126.746 148.413 126.564 148.413 126.336 148.413C125.653 148.413 125.06 148.64 124.559 149.005L125.653 154.519C125.881 154.564 126.108 154.61 126.336 154.61C126.974 154.519 127.567 154.337 128.022 154.063Z" fill="black"/>
<path d="M126.382 153.744C127.641 153.744 128.661 152.724 128.661 151.466C128.661 150.207 127.641 149.188 126.382 149.188C125.124 149.188 124.104 150.207 124.104 151.466C124.104 152.724 125.124 153.744 126.382 153.744Z" fill="white"/>
<path d="M85.0973 190.153L84.2314 368.281H99.2691L114.079 220.32C114.124 219.454 114.808 218.816 115.674 218.816C116.54 218.816 117.223 219.499 117.269 220.32L117.679 233.99L120.003 190.153H85.0973Z" fill="#3F4249"/>
<path opacity="0.2" d="M115.628 218.771C106.605 218.771 98.7221 226.107 98.7221 235.13L92.8438 368.235H99.1778L113.988 220.274C114.079 219.454 114.808 218.771 115.628 218.771Z" fill="black"/>
<path d="M145.794 195.576H85.0513L85.0968 190.153H146.022L145.794 195.576Z" fill="#242830"/>
<path d="M101.957 190.153H99.9976V196.032H101.957V190.153Z" fill="#3F4249"/>
<path d="M128.296 190.153H126.336V196.032H128.296V190.153Z" fill="#3F4249"/>
<path d="M119.046 195.576H111.891C111.162 195.576 110.57 194.984 110.57 194.254V191.475C110.57 190.746 111.162 190.153 111.891 190.153H119.046C119.775 190.153 120.367 190.746 120.367 191.475V194.254C120.367 194.984 119.775 195.576 119.046 195.576Z" fill="#B2B6BB"/>
<path d="M88.6055 376.528C88.5144 376.528 88.3776 376.483 88.3321 376.392C88.2409 376.255 88.2865 376.027 88.4232 375.936C88.4688 375.936 91.7497 373.749 94.9851 375.936C95.1218 376.027 95.1674 376.255 95.0762 376.392C94.9851 376.528 94.7573 376.574 94.6206 376.483C91.7497 374.569 88.8333 376.483 88.7878 376.483C88.7422 376.528 88.6511 376.528 88.6055 376.528Z" fill="#868A91"/>
<path d="M88.6055 378.489C88.5144 378.489 88.3776 378.443 88.3321 378.352C88.2409 378.215 88.2865 377.988 88.4232 377.896C88.4688 377.896 91.7497 375.709 94.9851 377.896C95.1218 377.988 95.1674 378.215 95.0762 378.352C94.9851 378.489 94.7573 378.534 94.6206 378.443C91.7497 376.529 88.8333 378.443 88.7878 378.443C88.7422 378.443 88.6511 378.489 88.6055 378.489Z" fill="#868A91"/>
<path d="M88.6055 380.403C88.5144 380.403 88.3776 380.357 88.3321 380.266C88.2409 380.129 88.2865 379.902 88.4232 379.81C88.4688 379.81 91.7497 377.623 94.9851 379.81C95.1218 379.902 95.1674 380.129 95.0762 380.266C94.9851 380.403 94.7573 380.448 94.6206 380.357C91.7497 378.443 88.8333 380.357 88.7878 380.357C88.7422 380.403 88.6511 380.403 88.6055 380.403Z" fill="#868A91"/>
<path d="M68.0544 358.028C67.8721 358.028 67.7354 357.891 67.7354 357.755C67.6898 357.572 67.8265 357.39 68.0088 357.39L71.5176 356.889C71.6999 356.843 71.8821 356.98 71.8821 357.162C71.9277 357.344 71.791 357.527 71.6087 357.527L68.0544 358.028Z" fill="#868A91"/>
<path d="M68.0998 360.398C67.9175 360.398 67.7808 360.261 67.7808 360.125C67.7352 359.942 67.8719 359.76 68.0542 359.76L71.563 359.259C71.7452 359.213 71.9275 359.35 71.9275 359.532C71.9731 359.715 71.8364 359.897 71.6541 359.897L68.0998 360.398C68.1453 360.398 68.1453 360.398 68.0998 360.398Z" fill="#868A91"/>
<path d="M68.0998 363.041C67.9175 363.041 67.7808 362.904 67.7808 362.767C67.7352 362.585 67.8719 362.403 68.0542 362.403L71.563 361.901C71.7452 361.856 71.9275 361.993 71.9275 362.175C71.9731 362.357 71.8364 362.539 71.6541 362.539L68.0998 363.041C68.1453 363.041 68.1453 363.041 68.0998 363.041Z" fill="#868A91"/>
<g opacity="0.2">
<path opacity="0.2" d="M85.0059 211.16L89.6994 195.439C89.745 195.257 89.9273 195.166 90.1095 195.211C90.2918 195.257 90.383 195.439 90.3374 195.621L85.0059 213.53V211.16Z" fill="black"/>
</g>
<g opacity="0.2">
<path opacity="0.2" d="M145.02 211.479L140.235 195.439C140.189 195.257 140.007 195.166 139.825 195.211C139.643 195.257 139.551 195.439 139.597 195.621L144.928 213.53L145.02 211.479Z" fill="black"/>
</g>
<g opacity="0.2">
<path opacity="0.2" d="M117.724 276.051C117.633 276.051 117.587 276.005 117.496 275.96C117.36 275.823 117.36 275.641 117.451 275.504L123.511 268.441C123.648 268.304 123.83 268.304 123.967 268.395C124.104 268.532 124.104 268.714 124.013 268.851L117.952 275.914C117.952 276.005 117.861 276.051 117.724 276.051Z" fill="black"/>
</g>
<path opacity="0.2" d="M158.599 142.124L160.65 139.572L158.143 132.509L156.731 141.35C156.64 142.215 158.052 142.808 158.599 142.124Z" fill="black"/>
<path opacity="0.2" d="M160.969 165.729C162.017 165.045 162.564 164.088 163.475 162.539L165.298 159.714V133.102L160.969 165.729Z" fill="black"/>
<path d="M112.484 107.538L123.921 97.5125L122.235 74.8193H103.279L101.866 97.6948L112.484 107.538Z" fill="#FC9D9D"/>
<path d="M124.787 66.8452C124.787 66.8452 127.157 92.8193 112.894 93.0015C98.9497 93.1838 100.089 67.1641 100.089 67.1641L100.134 59.6909L118.18 57.5947L122.554 60.1921L124.787 66.8452Z" fill="#FC9D9D"/>
<path d="M121.779 60.8296C121.779 60.8296 126.473 58.0955 128.296 63.3359C129.845 67.756 126.518 72.3129 126.518 72.3129L123.921 71.9028C122.827 71.8116 122.098 71.2648 122.053 70.1712L121.779 60.8296Z" fill="#21252B"/>
<path d="M125.197 57.9133C125.288 62.8347 121.005 63.8828 119.319 63.9284L105.193 64.2929C104.053 64.3385 103.142 65.2499 103.142 66.3891V70.8548C103.142 71.4472 102.686 71.994 102.048 72.0396L101.183 72.0851L100.135 73.2244C94.7119 71.5839 93.3448 55.8171 103.643 53.2653C104.737 52.9919 105.739 52.2628 106.286 51.2603C107.927 48.2983 114.033 47.8426 116.858 51.4426C117.451 52.2172 118.225 52.5818 119.182 52.6273C122.919 52.764 125.152 55.2248 125.197 57.9133Z" fill="#21252B"/>
<path d="M101.092 73.6348C101 71.8121 98.9043 70.764 97.4461 71.8121L97.4005 71.8577C94.8487 73.8171 96.0335 80.4701 101.365 80.1967L101.092 73.6348Z" fill="#FC9D9D"/>
<path d="M127.794 71.721L127.749 71.6755C126.245 70.6274 124.194 71.721 124.149 73.5438L124.058 79.8323C129.435 79.969 130.346 73.5893 127.794 71.721Z" fill="#FC9D9D"/>
<path d="M101.729 74.5007C101.729 74.8197 101.456 75.0931 101.091 75.0931C100.726 75.0931 100.453 74.8653 100.408 74.5919L100.043 70.354L101.775 70.5363L101.729 74.5007Z" fill="#21252B"/>
<path d="M125.243 74.136C125.243 74.4549 124.969 74.7283 124.605 74.7283C124.24 74.7283 123.967 74.5001 123.921 74.2266L123.557 69.9893L125.288 70.1715L125.243 74.136Z" fill="#21252B"/>
<path d="M119.319 64.5672C118.909 64.5672 118.635 64.5216 118.59 64.5216C118.408 64.5216 118.316 64.3394 118.316 64.2027C118.316 64.0204 118.499 63.9293 118.635 63.9293C118.681 63.9293 121.461 64.2482 122.782 62.4255C122.873 62.2888 123.056 62.2432 123.192 62.3799C123.329 62.471 123.375 62.6533 123.238 62.79C122.235 64.2938 120.367 64.5672 119.319 64.5672Z" fill="#FC9D9D"/>
<path d="M108.063 77.6902C108.743 77.6902 109.294 77.1393 109.294 76.4599C109.294 75.78 108.743 75.2295 108.063 75.2295C107.384 75.2295 106.833 75.78 106.833 76.4599C106.833 77.1393 107.384 77.6902 108.063 77.6902Z" fill="#21252B"/>
<path d="M107.471 76.5962C107.622 76.5962 107.745 76.474 107.745 76.3227C107.745 76.1719 107.622 76.0493 107.471 76.0493C107.32 76.0493 107.198 76.1719 107.198 76.3227C107.198 76.474 107.32 76.5962 107.471 76.5962Z" fill="white"/>
<path d="M117.587 77.5535C118.266 77.5535 118.817 77.0026 118.817 76.3231C118.817 75.6437 118.266 75.0928 117.587 75.0928C116.907 75.0928 116.356 75.6437 116.356 76.3231C116.356 77.0026 116.907 77.5535 117.587 77.5535Z" fill="#21252B"/>
<path d="M116.995 76.4604C117.145 76.4604 117.268 76.3378 117.268 76.187C117.268 76.0357 117.145 75.9136 116.995 75.9136C116.844 75.9136 116.721 76.0357 116.721 76.187C116.721 76.3378 116.844 76.4604 116.995 76.4604Z" fill="white"/>
<g opacity="0.3">
<path opacity="0.3" d="M113.076 82.6119H114.078C114.261 82.6119 114.443 82.4296 114.443 82.2473C114.443 82.0651 114.261 81.8828 114.078 81.8828H113.076C112.666 81.8828 112.347 81.5638 112.347 81.1537C112.347 80.7436 112.666 80.379 113.076 80.379C113.258 80.379 113.44 80.1967 113.44 80.0145C113.44 79.8322 113.258 79.6499 113.076 79.6499C112.256 79.6499 111.618 80.3334 111.618 81.1081C111.618 81.9739 112.256 82.6575 113.076 82.6119Z" fill="black"/>
</g>
<path d="M121.232 73.2246H115.855H115.126H110.433H110.387H104.326C103.324 73.2246 102.549 73.9993 102.549 75.0018V76.3688C102.549 79.0118 104.691 81.1991 107.38 81.1991C110.023 81.1991 112.21 79.0574 112.21 76.3688V75.0018C112.21 74.5917 112.073 74.2271 111.845 73.9081H113.714C113.486 74.2271 113.349 74.5917 113.349 74.9562V76.3233C113.349 78.9662 115.491 81.1535 118.179 81.1535C120.822 81.1535 123.01 79.0118 123.01 76.3233V74.9562C123.01 74.0448 122.235 73.2246 121.232 73.2246ZM111.481 75.0018V76.3688C111.481 78.6473 109.612 80.47 107.334 80.47C105.056 80.47 103.233 78.6017 103.233 76.3233V74.9562C103.233 74.3638 103.734 73.9081 104.326 73.9081H110.387H110.433C111.025 73.9081 111.526 74.4094 111.481 75.0018ZM122.28 76.3688C122.28 78.6473 120.412 80.47 118.134 80.47C115.855 80.47 114.033 78.6017 114.033 76.3233V74.9562C114.033 74.3638 114.534 73.9081 115.126 73.9081H115.855H121.232C121.825 73.9081 122.28 74.4094 122.28 75.0018V76.3688Z" fill="#21252B"/>
<path d="M109.932 84.3885L115.993 84.2974C116.129 84.2974 116.266 84.4341 116.22 84.6163C115.172 87.6694 110.935 87.7605 109.75 84.753V84.7075C109.659 84.5708 109.795 84.3885 109.932 84.3885Z" fill="white"/>
<g opacity="0.3">
<path opacity="0.3" d="M99.542 76.9608C99.3597 76.9608 99.1774 76.8241 99.1774 76.6418L99.1318 75.8671C99.0863 75.0469 98.904 74.5006 98.5395 74.1816C98.266 73.9537 97.9926 73.9537 97.9471 73.9537C97.7648 73.9537 97.5825 73.8166 97.5825 73.6343C97.5825 73.452 97.7192 73.2697 97.9015 73.2242C97.9471 73.2242 98.4939 73.1786 98.9951 73.5887C99.4964 73.9988 99.7698 74.774 99.8154 75.7765L99.8609 76.5507C99.9065 76.7785 99.7698 76.9152 99.542 76.9608C99.5875 76.9608 99.5875 76.9608 99.542 76.9608Z" fill="black"/>
</g>
<g opacity="0.3">
<path opacity="0.3" d="M125.835 76.5961C126.017 76.5961 126.199 76.4594 126.199 76.2772L126.245 75.5025C126.245 74.6823 126.427 74.0899 126.746 73.8164C127.02 73.543 127.293 73.5886 127.293 73.5886C127.475 73.5886 127.658 73.4519 127.658 73.2696C127.658 73.0874 127.521 72.9051 127.339 72.9051C127.293 72.9051 126.746 72.8595 126.245 73.3152C125.744 73.7709 125.47 74.5 125.47 75.5481L125.425 76.3227C125.47 76.4139 125.607 76.5506 125.835 76.5961Z" fill="black"/>
</g>
<path opacity="0.15" d="M122.964 84.6172L123.01 84.4805C121.46 88.9006 118.544 92.455 113.896 92.9562H113.941C113.622 93.0018 113.258 93.0018 112.939 93.0018C109.202 93.0474 106.24 91.1335 104.144 87.3513C104.053 87.2146 103.871 87.1234 103.689 87.2146C103.552 87.3057 103.461 87.488 103.552 87.6703C105.785 91.6803 108.929 93.6853 112.939 93.6398C113.805 93.6398 114.625 93.5031 115.4 93.3208C117.86 93.822 120.686 93.3663 123.465 91.5892L122.964 84.6172Z" fill="black"/>
<path opacity="0.8" d="M49.4169 352.651L69.2848 389.334C69.6949 390.154 70.6518 390.473 71.5176 390.154C71.6999 390.108 71.8822 390.017 72.0189 389.926L50.1916 348.914C49.0524 349.825 48.7334 351.375 49.4169 352.651Z" fill="black"/>
<path opacity="0.8" d="M82.6363 390.291H99.5879C100.909 390.291 101.866 389.061 101.593 387.785H80.6313C80.3579 389.061 81.3148 390.291 82.6363 390.291Z" fill="black"/>
<path d="M126.473 152.013L125.061 151.557L125.106 151.329L126.336 151.739L127.202 150.281L127.43 150.418L126.473 152.013Z" fill="#242830"/>
<path d="M466.734 238.092H441.261V291.863H466.734V238.092Z" fill="#DADDDF"/>
<path d="M456.708 238.092H467.599V243.287H466.734V291.863H458.349V243.287H456.708V238.092Z" fill="#B2B6BB"/>
<path d="M456.436 238.092H441.261V243.287H456.436V238.092Z" fill="#DADDDF"/>
<path d="M461.311 243.287H441.261V243.97H461.311V243.287Z" fill="#B2B6BB"/>
<path d="M476.668 197.81H472.248H370.949V202.184H472.248V291.863H370.949V296.238H472.248V390.291H476.668V197.81Z" fill="white"/>
<path d="M308.884 48.9367C308.884 36.7699 318.089 26.7448 329.937 25.4233V25.2866H332.534C345.613 25.2866 356.185 35.8585 356.185 48.9367C356.185 62.0149 345.613 72.5868 332.534 72.5868H329.937V72.4501C318.089 71.1286 308.884 61.1035 308.884 48.9367Z" fill="#B2B6BB"/>
<path d="M329.937 72.5868C342.998 72.5868 353.587 61.9981 353.587 48.9367C353.587 35.8749 342.998 25.2866 329.937 25.2866C316.875 25.2866 306.287 35.8749 306.287 48.9367C306.287 61.9981 316.875 72.5868 329.937 72.5868Z" fill="#868A91"/>
<path d="M329.937 69.9891C341.564 69.9891 350.99 60.5637 350.99 48.9365C350.99 37.3096 341.564 27.8838 329.937 27.8838C318.31 27.8838 308.884 37.3096 308.884 48.9365C308.884 60.5637 318.31 69.9891 329.937 69.9891Z" fill="white"/>
<path d="M329.937 69.9891C341.564 69.9891 350.99 60.5637 350.99 48.9365C350.99 37.3096 341.564 27.8838 329.937 27.8838C318.31 27.8838 308.884 37.3096 308.884 48.9365C308.884 60.5637 318.31 69.9891 329.937 69.9891Z" fill="#868A91"/>
<path opacity="0.9" d="M329.937 69.9891C341.564 69.9891 350.99 60.5637 350.99 48.9365C350.99 37.3096 341.564 27.8838 329.937 27.8838C318.31 27.8838 308.884 37.3096 308.884 48.9365C308.884 60.5637 318.31 69.9891 329.937 69.9891Z" fill="white"/>
<path d="M329.937 27.8838C330.302 27.8838 330.712 27.8838 331.076 27.9294C319.957 28.5217 311.163 37.681 311.163 48.9365C311.163 60.1919 320.003 69.3512 331.076 69.9436C330.712 69.9436 330.347 69.9891 329.937 69.9891C318.317 69.9891 308.884 60.5564 308.884 48.9365C308.884 37.3165 318.317 27.8838 329.937 27.8838Z" fill="#B2B6BB"/>
<path d="M329.709 50.5769L336.681 36.6785C336.955 36.1317 336.727 35.4938 336.18 35.2203C335.633 34.9469 334.995 35.1748 334.722 35.7216L328.752 47.6605L320.732 43.7417C320.185 43.4682 319.547 43.6961 319.274 44.2429C319.001 44.7897 319.229 45.4277 319.775 45.7011L329.709 50.5769Z" fill="#DA5C5C"/>
<path opacity="0.5" d="M311.892 59.7818C309.978 56.592 308.884 52.9009 308.884 48.9365C308.884 37.3165 318.317 27.8838 329.937 27.8838C330.529 27.8838 331.076 27.9294 331.669 27.9749L311.892 59.7818Z" fill="white"/>
<path opacity="0.5" d="M334.813 28.4766C335.815 28.7044 336.818 29.0234 337.775 29.4335L315.993 64.7492C315.127 64.0201 314.352 63.1543 313.623 62.2885L334.813 28.4766Z" fill="white"/>
<path d="M441.899 390.61H176.234C172.634 390.61 169.763 387.693 169.763 384.139V118.474C169.763 114.874 172.68 112.003 176.234 112.003H441.899C445.499 112.003 448.37 114.92 448.37 118.474V384.139C448.37 387.739 445.499 390.61 441.899 390.61Z" fill="#DA5C5C"/>
<path opacity="0.5" d="M441.899 390.61H176.234C172.634 390.61 169.763 387.693 169.763 384.139V118.474C169.763 114.874 172.68 112.003 176.234 112.003H441.899C445.499 112.003 448.37 114.92 448.37 118.474V384.139C448.37 387.739 445.499 390.61 441.899 390.61Z" fill="white"/>
<path d="M437.433 390.61H171.768C168.168 390.61 165.297 387.693 165.297 384.139V118.474C165.297 114.874 168.214 112.003 171.768 112.003H437.433C441.033 112.003 443.904 114.92 443.904 118.474V384.139C443.904 387.739 441.033 390.61 437.433 390.61Z" fill="#DA5C5C"/>
<path opacity="0.7" d="M437.433 390.61H171.768C168.168 390.61 165.297 387.693 165.297 384.139V118.474C165.297 114.874 168.214 112.003 171.768 112.003H437.433C441.033 112.003 443.904 114.92 443.904 118.474V384.139C443.904 387.739 441.033 390.61 437.433 390.61Z" fill="white"/>
<path d="M180.427 109.771C180.427 111.001 181.429 111.958 182.614 111.958H185.622L186.351 119.249C186.396 119.796 186.897 120.252 187.444 120.252C188.037 120.252 188.492 119.796 188.538 119.204L188.994 112.232C188.994 112.14 189.085 112.049 189.221 112.049C189.313 112.049 189.404 112.14 189.449 112.232L189.905 119.112C189.951 119.75 190.452 120.252 191.09 120.252C191.728 120.252 192.275 119.75 192.275 119.067L192.502 112.095L192.275 118.885C192.229 119.614 192.867 120.252 193.596 120.252C194.28 120.252 194.826 119.75 194.918 119.067L195.555 112.14L195.1 117.29C195.054 117.928 195.556 118.52 196.193 118.52C196.74 118.52 197.196 118.155 197.287 117.609L198.153 113.234C198.381 112.095 197.971 110.91 197.105 110.181C193.596 107.128 188.584 106.535 184.482 108.768L180.609 109.543C180.518 109.497 180.427 109.634 180.427 109.771Z" fill="#FC9D9D"/>
<g opacity="0.15">
<path opacity="0.15" d="M192.22 112.105L192.006 118.527L192.644 118.548L192.858 112.126L192.22 112.105Z" fill="black"/>
</g>
<g opacity="0.15">
<path opacity="0.15" d="M195.185 112.508L194.753 117.685L195.389 117.739L195.82 112.561L195.185 112.508Z" fill="black"/>
</g>
<path opacity="0.2" d="M185.621 112.003H182.614L184.437 110.271C184.801 109.907 185.439 110.135 185.485 110.682L185.621 112.003Z" fill="black"/>
<path d="M293.71 238.046H204.077C202.163 238.046 200.659 236.497 200.659 234.628V144.995C200.659 143.081 202.209 141.577 204.077 141.577H293.71C295.624 141.577 297.128 143.126 297.128 144.995V234.628C297.128 236.542 295.624 238.046 293.71 238.046Z" fill="#DA5C5C"/>
<path opacity="0.5" d="M293.71 238.046H204.077C202.163 238.046 200.659 236.497 200.659 234.628V144.995C200.659 143.081 202.209 141.577 204.077 141.577H293.71C295.624 141.577 297.128 143.126 297.128 144.995V234.628C297.128 236.542 295.624 238.046 293.71 238.046Z" fill="white"/>
<path d="M289.244 238.046H199.611C197.697 238.046 196.193 236.497 196.193 234.628V144.995C196.193 143.081 197.742 141.577 199.611 141.577H289.244C291.158 141.577 292.662 143.126 292.662 144.995V234.628C292.707 236.542 291.158 238.046 289.244 238.046Z" fill="white"/>
<path d="M265.548 207.561H223.352C221.848 207.561 220.663 206.33 220.663 204.872C220.663 203.368 221.893 202.184 223.352 202.184H265.548C267.052 202.184 268.237 203.414 268.237 204.872C268.237 206.376 267.052 207.561 265.548 207.561Z" fill="#61656D"/>
<path d="M276.531 218.087H212.37C211.595 218.087 210.958 217.45 210.958 216.675C210.958 215.9 211.595 215.262 212.37 215.262H276.531C277.305 215.262 277.943 215.9 277.943 216.675C277.989 217.45 277.305 218.087 276.531 218.087Z" fill="#B2B6BB"/>
<path d="M263.589 226.836H225.357C224.583 226.836 223.945 226.198 223.945 225.423C223.945 224.649 224.583 224.011 225.357 224.011H263.589C264.364 224.011 265.002 224.649 265.002 225.423C265.002 226.198 264.364 226.836 263.589 226.836Z" fill="#B2B6BB"/>
<path d="M248.095 152.788H244.45V153.152C235.974 154.838 229.549 162.357 229.549 171.334C229.549 180.311 235.928 187.83 244.45 189.516V189.88H248.095C258.348 189.88 266.642 181.587 266.642 171.334C266.642 161.081 258.348 152.788 248.095 152.788Z" fill="#DA5C5C"/>
<path d="M244.45 189.835C254.693 189.835 262.997 181.531 262.997 171.289C262.997 161.046 254.693 152.742 244.45 152.742C234.207 152.742 225.904 161.046 225.904 171.289C225.904 181.531 234.207 189.835 244.45 189.835Z" fill="#DA5C5C"/>
<path opacity="0.4" d="M244.45 189.835C254.693 189.835 262.997 181.531 262.997 171.289C262.997 161.046 254.693 152.742 244.45 152.742C234.207 152.742 225.904 161.046 225.904 171.289C225.904 181.531 234.207 189.835 244.45 189.835Z" fill="white"/>
<path d="M240.987 179.034L234.744 172.791C234.425 172.472 234.425 171.926 234.744 171.561L236.385 169.921C236.704 169.602 237.25 169.602 237.615 169.921L241.625 173.931L251.286 164.225C251.605 163.906 252.151 163.906 252.516 164.225L254.156 165.865C254.475 166.184 254.475 166.731 254.156 167.095L242.217 179.034C241.898 179.399 241.352 179.399 240.987 179.034Z" fill="white"/>
<path d="M414.011 238.046H324.378C322.464 238.046 320.96 236.497 320.96 234.628V144.995C320.96 143.081 322.509 141.577 324.378 141.577H414.011C415.925 141.577 417.429 143.126 417.429 144.995V234.628C417.474 236.542 415.925 238.046 414.011 238.046Z" fill="#DA5C5C"/>
<path opacity="0.5" d="M414.011 238.046H324.378C322.464 238.046 320.96 236.497 320.96 234.628V144.995C320.96 143.081 322.509 141.577 324.378 141.577H414.011C415.925 141.577 417.429 143.126 417.429 144.995V234.628C417.474 236.542 415.925 238.046 414.011 238.046Z" fill="white"/>
<path d="M409.545 238.046H319.957C318.043 238.046 316.54 236.497 316.54 234.628V144.995C316.54 143.081 318.089 141.577 319.957 141.577H409.591C411.505 141.577 413.008 143.126 413.008 144.995V234.628C413.008 236.542 411.459 238.046 409.545 238.046Z" fill="white"/>
<path d="M385.849 207.561H343.653C342.149 207.561 340.964 206.33 340.964 204.872C340.964 203.368 342.195 202.184 343.653 202.184H385.849C387.353 202.184 388.538 203.414 388.538 204.872C388.584 206.376 387.353 207.561 385.849 207.561Z" fill="#61656D"/>
<path d="M396.832 218.087H332.671C331.897 218.087 331.259 217.45 331.259 216.675C331.259 215.9 331.897 215.262 332.671 215.262H396.832C397.607 215.262 398.244 215.9 398.244 216.675C398.29 217.45 397.652 218.087 396.832 218.087Z" fill="#B2B6BB"/>
<path d="M383.89 226.836H345.658C344.884 226.836 344.246 226.198 344.246 225.423C344.246 224.649 344.884 224.011 345.658 224.011H383.89C384.665 224.011 385.303 224.649 385.303 225.423C385.303 226.198 384.665 226.836 383.89 226.836Z" fill="#B2B6BB"/>
<path d="M368.396 152.788H364.751V153.152C356.275 154.838 349.85 162.357 349.85 171.334C349.85 180.311 356.23 187.83 364.751 189.516V189.88H368.396C378.649 189.88 386.943 181.587 386.943 171.334C386.943 161.081 378.649 152.788 368.396 152.788Z" fill="#DA5C5C"/>
<path d="M383.07 174.258C384.71 164.147 377.843 154.621 367.732 152.98C357.625 151.339 348.097 158.205 346.456 168.316C344.815 178.427 351.681 187.953 361.79 189.594C371.901 191.235 381.43 184.369 383.07 174.258Z" fill="#DA5C5C"/>
<path opacity="0.4" d="M383.07 174.258C384.71 164.147 377.843 154.621 367.732 152.98C357.625 151.339 348.097 158.205 346.456 168.316C344.815 178.427 351.681 187.953 361.79 189.594C371.901 191.235 381.43 184.369 383.07 174.258Z" fill="white"/>
<path d="M361.334 179.035L355.091 172.792C354.772 172.473 354.772 171.926 355.091 171.562L356.731 169.921C357.05 169.602 357.597 169.602 357.962 169.921L361.972 173.931L371.632 164.225C371.951 163.906 372.498 163.906 372.863 164.225L374.503 165.866C374.822 166.185 374.822 166.731 374.503 167.096L362.564 179.035C362.199 179.399 361.653 179.399 361.334 179.035Z" fill="white"/>
<path d="M293.71 364.636H204.077C202.163 364.636 200.659 363.087 200.659 361.218V271.585C200.659 269.671 202.209 268.167 204.077 268.167H293.71C295.624 268.167 297.128 269.717 297.128 271.585V361.218C297.128 363.087 295.624 364.636 293.71 364.636Z" fill="#DA5C5C"/>
<path opacity="0.5" d="M293.71 364.636H204.077C202.163 364.636 200.659 363.087 200.659 361.218V271.585C200.659 269.671 202.209 268.167 204.077 268.167H293.71C295.624 268.167 297.128 269.717 297.128 271.585V361.218C297.128 363.087 295.624 364.636 293.71 364.636Z" fill="white"/>
<path d="M289.244 364.636H199.611C197.697 364.636 196.193 363.087 196.193 361.218V271.585C196.193 269.671 197.742 268.167 199.611 268.167H289.244C291.158 268.167 292.662 269.717 292.662 271.585V361.218C292.707 363.087 291.158 364.636 289.244 364.636Z" fill="white"/>
<path d="M265.548 334.15H223.352C221.848 334.15 220.663 332.92 220.663 331.462C220.663 329.958 221.893 328.773 223.352 328.773H265.548C267.052 328.773 268.237 330.004 268.237 331.462C268.237 332.966 267.052 334.15 265.548 334.15Z" fill="#61656D"/>
<path d="M276.531 344.677H212.37C211.595 344.677 210.958 344.039 210.958 343.264C210.958 342.49 211.595 341.852 212.37 341.852H276.531C277.305 341.852 277.943 342.49 277.943 343.264C277.989 344.039 277.305 344.677 276.531 344.677Z" fill="#B2B6BB"/>
<path d="M263.589 353.426H225.357C224.583 353.426 223.945 352.788 223.945 352.013C223.945 351.239 224.583 350.601 225.357 350.601H263.589C264.364 350.601 265.002 351.239 265.002 352.013C265.002 352.788 264.364 353.426 263.589 353.426Z" fill="#B2B6BB"/>
<path d="M248.095 279.377H244.45V279.741C235.974 281.428 229.549 288.946 229.549 297.923C229.549 306.9 235.928 314.419 244.45 316.105V316.47H248.095C258.348 316.47 266.642 308.176 266.642 297.923C266.642 287.67 258.348 279.377 248.095 279.377Z" fill="#DA5C5C"/>
<path d="M244.45 316.424C254.693 316.424 262.997 308.121 262.997 297.878C262.997 287.635 254.693 279.332 244.45 279.332C234.207 279.332 225.904 287.635 225.904 297.878C225.904 308.121 234.207 316.424 244.45 316.424Z" fill="#DA5C5C"/>
<path opacity="0.4" d="M244.45 316.424C254.693 316.424 262.997 308.121 262.997 297.878C262.997 287.635 254.693 279.332 244.45 279.332C234.207 279.332 225.904 287.635 225.904 297.878C225.904 308.121 234.207 316.424 244.45 316.424Z" fill="white"/>
<path d="M240.987 305.624L234.744 299.381C234.425 299.062 234.425 298.516 234.744 298.151L236.385 296.511C236.704 296.192 237.25 296.192 237.615 296.511L241.625 300.521L251.286 290.814C251.605 290.495 252.151 290.495 252.516 290.814L254.156 292.455C254.475 292.774 254.475 293.321 254.156 293.685L242.217 305.624C241.898 305.989 241.352 305.989 240.987 305.624Z" fill="white"/>
<path d="M414.011 364.636H324.378C322.464 364.636 320.96 363.087 320.96 361.218V271.585C320.96 269.671 322.509 268.167 324.378 268.167H414.011C415.925 268.167 417.429 269.717 417.429 271.585V361.218C417.474 363.087 415.925 364.636 414.011 364.636Z" fill="#DA5C5C"/>
<path opacity="0.5" d="M414.011 364.636H324.378C322.464 364.636 320.96 363.087 320.96 361.218V271.585C320.96 269.671 322.509 268.167 324.378 268.167H414.011C415.925 268.167 417.429 269.717 417.429 271.585V361.218C417.474 363.087 415.925 364.636 414.011 364.636Z" fill="white"/>
<path d="M409.545 364.636H319.957C318.043 364.636 316.54 363.087 316.54 361.218V271.585C316.54 269.671 318.089 268.167 319.957 268.167H409.591C411.505 268.167 413.008 269.717 413.008 271.585V361.218C413.008 363.087 411.459 364.636 409.545 364.636Z" fill="white"/>
<path d="M385.849 334.15H343.653C342.149 334.15 340.964 332.92 340.964 331.462C340.964 329.958 342.195 328.773 343.653 328.773H385.849C387.353 328.773 388.538 330.004 388.538 331.462C388.584 332.966 387.353 334.15 385.849 334.15Z" fill="#61656D"/>
<path d="M396.832 344.677H332.671C331.897 344.677 331.259 344.039 331.259 343.264C331.259 342.49 331.897 341.852 332.671 341.852H396.832C397.607 341.852 398.244 342.49 398.244 343.264C398.29 344.039 397.652 344.677 396.832 344.677Z" fill="#B2B6BB"/>
<path d="M383.89 353.426H345.658C344.884 353.426 344.246 352.788 344.246 352.013C344.246 351.239 344.884 350.601 345.658 350.601H383.89C384.665 350.601 385.303 351.239 385.303 352.013C385.303 352.788 384.665 353.426 383.89 353.426Z" fill="#B2B6BB"/>
<path d="M368.396 279.377H364.751V279.741C356.275 281.428 349.85 288.946 349.85 297.923C349.85 306.9 356.23 314.419 364.751 316.105V316.47H368.396C378.649 316.47 386.943 308.176 386.943 297.923C386.943 287.67 378.649 279.377 368.396 279.377Z" fill="#DA5C5C"/>
<path d="M383.07 300.85C384.71 290.739 377.848 281.212 367.736 279.571C357.624 277.931 348.098 284.797 346.457 294.908C344.816 305.018 351.682 314.545 361.794 316.186C371.906 317.827 381.429 310.96 383.07 300.85Z" fill="#DA5C5C"/>
<path opacity="0.4" d="M383.07 300.85C384.71 290.739 377.848 281.212 367.736 279.571C357.624 277.931 348.098 284.797 346.457 294.908C344.816 305.018 351.682 314.545 361.794 316.186C371.906 317.827 381.429 310.96 383.07 300.85Z" fill="white"/>
<path d="M361.334 305.624L355.091 299.381C354.772 299.062 354.772 298.516 355.091 298.151L356.731 296.511C357.05 296.192 357.597 296.192 357.962 296.511L361.972 300.521L371.632 290.814C371.951 290.495 372.498 290.495 372.863 290.814L374.503 292.455C374.822 292.774 374.822 293.321 374.503 293.685L362.564 305.624C362.199 305.989 361.653 305.989 361.334 305.624Z" fill="white"/>
<path d="M347.617 382.544C344.245 382.544 341.511 385.278 341.511 388.65C341.511 389.38 342.104 389.972 342.833 389.972H352.63C353.724 389.972 354.726 389.334 355.182 388.286L367.941 359.669L353.632 343.127C353.86 343.902 347.617 382.544 347.617 382.544Z" fill="#3F4249"/>
<path d="M418.294 358.985H394.052L403.803 368.327C405.216 369.694 405.854 371.653 405.49 373.613L403.758 382.544C400.523 382.544 397.925 385.142 397.925 388.377V388.65C397.925 389.38 398.517 389.972 399.247 389.972H408.132C409.181 389.972 410.183 389.38 410.639 388.423L418.978 371.517C420.071 369.284 420.345 366.686 419.707 364.271L418.294 358.985Z" fill="#3F4249"/>
<path d="M431.464 339.846C436.568 338.297 446.046 332.829 450.42 327.224C450.739 326.768 450.739 326.176 450.42 325.72C450.056 325.265 449.418 325.173 448.917 325.447C410.457 347.137 370.994 321.437 370.994 321.437C370.448 318.384 368.579 315.786 365.891 314.237C360.514 311.184 353.906 311.184 348.484 314.191C346.615 315.239 344.382 315.467 342.332 314.738L336.317 312.596C335.269 312.232 334.129 312.915 334.038 314.055L333.856 315.832C333.264 321.118 335.132 326.404 338.869 330.186L364.66 356.342C367.577 359.304 368.898 363.451 368.306 367.552L366.027 382.59C362.655 382.59 359.921 385.324 359.921 388.696C359.921 389.425 360.514 390.017 361.243 390.017H371.04C372.134 390.017 373.136 389.379 373.592 388.331L386.579 359.031H412.325L422.077 368.372C423.489 369.739 424.127 371.699 423.763 373.658L422.031 382.59C418.796 382.59 416.199 385.187 416.199 388.423C416.199 389.334 416.928 390.017 417.793 390.017H426.36C427.408 390.017 428.411 389.425 428.867 388.468L437.206 371.562C438.299 369.329 438.573 366.732 437.935 364.317L431.464 339.846Z" fill="#868A91"/>
<path d="M354.035 318.151C354.729 317.457 354.902 316.504 354.422 316.024C353.941 315.544 352.989 315.717 352.295 316.411C351.601 317.105 351.428 318.057 351.908 318.537C352.389 319.018 353.341 318.845 354.035 318.151Z" fill="#3F4249"/>
<path d="M425.722 352.515C425.722 357.709 429.914 361.902 435.109 361.902C435.792 361.902 436.476 361.81 437.159 361.674L432.466 343.538C428.547 344.631 425.722 348.231 425.722 352.515Z" fill="#3F4249"/>
<path d="M384.802 362.767L383.116 362.084C380.838 361.173 378.286 361.719 376.554 363.451C375.142 364.909 374.549 366.96 374.959 368.965L375.278 370.332C375.506 371.425 375.46 372.565 375.096 373.658L374.959 374.023C374.048 376.666 374.549 379.582 376.372 381.769L384.802 362.767Z" fill="#3F4249"/>
<path d="M373.409 322.94L375.05 333.011C375.961 338.662 381.019 342.353 386.123 341.122L390.862 339.983C391.91 339.71 393.049 339.71 394.097 339.892L404.259 341.852C409.226 342.808 414.193 340.348 416.836 335.654L417.656 334.196C396.968 334.788 379.652 326.404 373.409 322.94Z" fill="#3F4249"/>
<path d="M437.752 330.505C438.709 331.234 439.894 331.644 441.215 331.644C444.177 331.644 446.638 329.411 446.957 326.541C443.858 328.135 440.805 329.457 437.752 330.505Z" fill="#3F4249"/>
<path d="M346.889 326.267C345.522 324.399 344.975 322.075 345.248 319.797L345.886 315.149C344.701 315.331 343.471 315.24 342.332 314.83L336.317 312.688C335.269 312.323 334.129 313.007 334.038 314.146L333.856 315.923C333.264 321.209 335.132 326.495 338.869 330.277L346.433 337.933L347.527 335.928C349.167 332.829 348.939 329.093 346.889 326.267Z" fill="#B2B6BB"/>
<path d="M369.764 323.214L374.458 335.016C375.642 337.796 374.503 341.487 371.997 343.127C369.035 345.087 365.025 345.224 361.106 341.441C355.775 336.338 358.007 324.991 360.741 320.662" fill="#3F4249"/>
<path d="M412.188 359.031L407.039 353.426L411.368 362.858L412.188 359.031Z" fill="#3F4249"/>
<path d="M339.962 313.964L336.362 312.688C335.268 312.278 334.083 313.052 333.947 314.192L333.673 316.743C334.129 316.835 334.585 316.926 335.04 316.926C337.182 316.88 339.05 315.695 339.962 313.964Z" fill="#3F4249"/>
<path d="M369.308 322.075L374.23 334.287C374.959 336.064 374.321 338.115 372.68 339.117C370.265 340.621 366.346 341.669 362.108 337.614C357.597 333.285 358.235 324.08 361.151 319.933" fill="#868A91"/>
<path d="M368.306 340.758C366.392 340.758 364.204 339.984 361.926 337.796C359.784 335.746 358.599 332.51 358.554 328.637C358.508 325.219 359.42 321.802 360.923 319.66C361.015 319.523 361.197 319.478 361.334 319.569C361.47 319.66 361.516 319.842 361.425 319.979C358.691 323.807 357.87 332.966 362.336 337.295C366.437 341.214 370.128 340.257 372.544 338.753C374.047 337.796 374.64 335.973 373.956 334.333L369.035 322.121C368.989 321.984 369.035 321.802 369.217 321.711C369.354 321.665 369.536 321.711 369.627 321.893L374.549 334.105C375.369 336.019 374.64 338.206 372.908 339.3C371.632 340.12 370.083 340.758 368.306 340.758Z" fill="#3F4249"/>
<path d="M386.442 359.031C386.442 359.031 391.91 352.56 407.039 353.38L409.591 359.031H386.442Z" fill="#B2B6BB"/>
<path d="M431.099 338.297L431.464 339.892C431.464 339.892 435.337 338.662 438.8 336.565L431.099 338.297Z" fill="#3F4249"/>
<path d="M339.142 323.077C337.911 323.077 336.863 322.712 336.043 322.029C333.446 319.842 333.856 315.057 333.856 314.829C333.856 314.647 334.038 314.556 334.175 314.556C334.357 314.556 334.448 314.738 334.448 314.875C334.448 314.92 334.038 319.568 336.408 321.528C337.547 322.485 339.142 322.667 341.192 322.12C341.375 322.074 341.511 322.166 341.557 322.348C341.602 322.53 341.511 322.667 341.329 322.712C340.6 322.986 339.825 323.077 339.142 323.077Z" fill="#3F4249"/>
<path d="M504.055 197.81H476.668V390.291H504.055V197.81Z" fill="#DADDDF"/>
<path d="M527.796 391.704H11.549C11.23 391.704 11.0022 391.476 11.0022 391.157C11.0022 390.838 11.23 390.61 11.549 390.291H527.75C528.297 390.382 528.297 390.838 528.297 391.157C528.297 391.43 528.069 391.704 527.796 391.704Z" fill="#DADDDF"/>
</svg>
