<svg width="29" height="22" viewBox="0 0 29 22" fill="none" xmlns="http://www.w3.org/2000/svg">
<path d="M28.8122 11.2599C28.8122 11.189 28.8122 11.1083 28.809 11.0148C28.8058 10.7536 28.7993 10.4602 28.7929 10.1474C28.7672 9.24768 28.7221 8.3512 28.6514 7.50632C28.5549 6.34219 28.4134 5.37155 28.2205 4.64276C28.0169 3.8822 27.6178 3.18856 27.0631 2.63116C26.5084 2.07376 25.8175 1.67212 25.0595 1.4664C24.1495 1.22132 22.368 1.06976 19.8598 0.976238C18.6668 0.931092 17.3902 0.902069 16.1136 0.885946C15.6666 0.879496 15.2518 0.876272 14.8788 0.873047H13.9334C13.5604 0.876272 13.1456 0.879496 12.6986 0.885946C11.422 0.902069 10.1454 0.931092 8.95236 0.976238C6.44415 1.07298 4.65947 1.22454 3.75266 1.4664C2.99441 1.67162 2.30327 2.07308 1.74849 2.63056C1.19371 3.18804 0.794779 3.88195 0.591679 4.64276C0.395524 5.37155 0.257252 6.34219 0.160782 7.50632C0.0900381 8.3512 0.045019 9.24768 0.0192938 10.1474C0.00964689 10.4602 0.00643124 10.7536 0.0032156 11.0148C0.0032156 11.1083 0 11.189 0 11.2599V11.4405C0 11.5114 -4.91148e-08 11.5921 0.0032156 11.6856C0.00643124 11.9468 0.0128625 12.2402 0.0192938 12.553C0.045019 13.4527 0.0900381 14.3492 0.160782 15.1941C0.257252 16.3582 0.39874 17.3289 0.591679 18.0576C1.00328 19.6023 2.21236 20.8212 3.75266 21.234C4.65947 21.4791 6.44415 21.6307 8.95236 21.7242C10.1454 21.7693 11.422 21.7983 12.6986 21.8145C13.1456 21.8209 13.5604 21.8241 13.9334 21.8274H14.8788C15.2518 21.8241 15.6666 21.8209 16.1136 21.8145C17.3902 21.7983 18.6668 21.7693 19.8598 21.7242C22.368 21.6274 24.1527 21.4759 25.0595 21.234C26.5998 20.8212 27.8089 19.6055 28.2205 18.0576C28.4167 17.3289 28.5549 16.3582 28.6514 15.1941C28.7221 14.3492 28.7672 13.4527 28.7929 12.553C28.8025 12.2402 28.8058 11.9468 28.809 11.6856C28.809 11.5921 28.8122 11.5114 28.8122 11.4405V11.2599ZM26.4969 11.4276C26.4969 11.4953 26.4969 11.5695 26.4937 11.6566C26.4905 11.9081 26.4841 12.1854 26.4776 12.4853C26.4551 13.3431 26.4101 14.2009 26.3426 14.9974C26.2557 16.0357 26.1336 16.8871 25.9824 17.4578C25.783 18.2028 25.1978 18.7929 24.4582 18.9896C23.7829 19.1702 22.0818 19.3153 19.7698 19.4024C18.5993 19.4475 17.3388 19.4765 16.0814 19.4927C15.6409 19.4991 15.2325 19.5023 14.8659 19.5023H13.9463L12.7307 19.4927C11.4734 19.4765 10.2161 19.4475 9.0424 19.4024C6.73035 19.3121 5.02605 19.1702 4.35398 18.9896C3.61439 18.7897 3.02914 18.2028 2.82977 17.4578C2.67863 16.8871 2.55644 16.0357 2.46962 14.9974C2.40209 14.2009 2.36028 13.3431 2.33456 12.4853C2.32491 12.1854 2.3217 11.9049 2.31848 11.6566C2.31848 11.5695 2.31526 11.4921 2.31526 11.4276V11.2728C2.31526 11.2051 2.31526 11.1309 2.31848 11.0439C2.3217 10.7923 2.32813 10.515 2.33456 10.2151C2.35707 9.35732 2.40209 8.49954 2.46962 7.70303C2.55644 6.66467 2.67863 5.81334 2.82977 5.24256C3.02914 4.49765 3.61439 3.90752 4.35398 3.71081C5.02927 3.53023 6.73035 3.38511 9.0424 3.29805C10.2129 3.2529 11.4734 3.22388 12.7307 3.20775C13.1713 3.2013 13.5797 3.19808 13.9463 3.19808H14.8659L16.0814 3.20775C17.3388 3.22388 18.5961 3.2529 19.7698 3.29805C22.0818 3.38834 23.7861 3.53023 24.4582 3.71081C25.1978 3.91075 25.783 4.49765 25.9824 5.24256C26.1336 5.81334 26.2557 6.66467 26.3426 7.70303C26.4101 8.49954 26.4519 9.35732 26.4776 10.2151C26.4873 10.515 26.4905 10.7955 26.4937 11.0439C26.4937 11.1309 26.4969 11.2083 26.4969 11.2728V11.4276ZM11.5442 15.6713L19.0045 11.318L11.5442 7.02906V15.6713Z" fill="#DA5C5C"/>
</svg>
